# xmcd
#
# Track frame offsets: 
#        187
#        24735
#        47097
#        53600
#        74355
#        88542
#        110575
#        129062
#        158210
#        181402
#        205065
#        219590
#        235055
#        258592
#        297225
#        312922
#
# Disc length: 4368 seconds
#
# Revision: 9
# Processed by: cddbd v1.5.2PL0 Copyright (c) Steve Scherf et al.
# Submitted via: ExactAudioCopy v0.99pb5
#
DISCID=e1110e10
DTITLE=BB King - King Of The Blues [Disc 3]
DYEAR=1992
DGENRE=Blues
TTITLE0=The Thrill Is Gone
TTITLE1=Confessin' The Blues
TTITLE2=Nobody Loves Me But My Mother
TTITLE3=Hummingbird
TTITLE4=Ask Me No Questions
TTITLE5=Chains And Things
TTITLE6=Eyesight To The Blind
TTITLE7=Niji Baby
TTITLE8=Blue Shadows
TTITLE9=Ghetto Woman
TTITLE10=Ain't Nobody Home
TTITLE11=I Got Some Help I Don't Need
TTITLE12=Five Long Years
TTITLE13=To Know You Is To Love You
TTITLE14=I Like To Live The Love
TTITLE15=Don't Make Me Pay For His Mistakes
EXTD=
EXTT0=
EXTT1=
EXTT2=
EXTT3=
EXTT4=
EXTT5=
EXTT6=Live In Japan 1971 - Previously Unissued In U.S.
EXTT7=Live In Japan 1971 - Previously Unissued In U.S.
EXTT8=
EXTT9=
EXTT10=
EXTT11=Single Edit - Previously Unissued On LP
EXTT12=
EXTT13=
EXTT14=
EXTT15=
PLAYORDER=
